<mxfile host="app.diagrams.net" modified="2023-05-17T04:49:33.613Z" agent="Mozilla/5.0 (Windows NT 10.0; Win64; x64) AppleWebKit/537.36 (KHTML, like Gecko) Chrome/115.0.0.0 Safari/537.36 Edg/115.0.0.0" etag="UOQITmT8Ed6LFuuomSpq" version="21.3.2" type="github">
  <diagram name="第 1 页" id="zf6y3hDgfA-L7C1wenlS">
    <mxGraphModel dx="1134" dy="716" grid="1" gridSize="10" guides="1" tooltips="1" connect="1" arrows="1" fold="1" page="1" pageScale="1" pageWidth="827" pageHeight="1169" math="0" shadow="0">
      <root>
        <mxCell id="0" />
        <mxCell id="1" parent="0" />
        <mxCell id="nCClCoLdNjX5_hGO6nCZ-24" value="" style="group" vertex="1" connectable="0" parent="1">
          <mxGeometry x="120" y="210" width="680" height="70" as="geometry" />
        </mxCell>
        <mxCell id="nCClCoLdNjX5_hGO6nCZ-13" value="&lt;font style=&quot;font-size: 16px;&quot;&gt;1&lt;/font&gt;" style="ellipse;whiteSpace=wrap;html=1;" vertex="1" parent="nCClCoLdNjX5_hGO6nCZ-24">
          <mxGeometry width="80" height="70" as="geometry" />
        </mxCell>
        <mxCell id="nCClCoLdNjX5_hGO6nCZ-14" value="2" style="ellipse;whiteSpace=wrap;html=1;fontSize=16;fillColor=#008a00;fontColor=#ffffff;strokeColor=#005700;" vertex="1" parent="nCClCoLdNjX5_hGO6nCZ-24">
          <mxGeometry x="120" width="80" height="70" as="geometry" />
        </mxCell>
        <mxCell id="nCClCoLdNjX5_hGO6nCZ-15" value="3" style="ellipse;whiteSpace=wrap;html=1;fontSize=16;fillColor=#1ba1e2;fontColor=#ffffff;strokeColor=#006EAF;" vertex="1" parent="nCClCoLdNjX5_hGO6nCZ-24">
          <mxGeometry x="240" width="80" height="70" as="geometry" />
        </mxCell>
        <mxCell id="nCClCoLdNjX5_hGO6nCZ-16" value="4" style="ellipse;whiteSpace=wrap;html=1;fontSize=16;" vertex="1" parent="nCClCoLdNjX5_hGO6nCZ-24">
          <mxGeometry x="360" width="80" height="70" as="geometry" />
        </mxCell>
        <mxCell id="nCClCoLdNjX5_hGO6nCZ-17" value="5" style="ellipse;whiteSpace=wrap;html=1;fontSize=16;" vertex="1" parent="nCClCoLdNjX5_hGO6nCZ-24">
          <mxGeometry x="480" width="80" height="70" as="geometry" />
        </mxCell>
        <mxCell id="nCClCoLdNjX5_hGO6nCZ-18" value="6" style="ellipse;whiteSpace=wrap;html=1;fontSize=16;" vertex="1" parent="nCClCoLdNjX5_hGO6nCZ-24">
          <mxGeometry x="600" width="80" height="70" as="geometry" />
        </mxCell>
        <mxCell id="nCClCoLdNjX5_hGO6nCZ-19" value="" style="endArrow=classic;html=1;rounded=0;" edge="1" parent="nCClCoLdNjX5_hGO6nCZ-24">
          <mxGeometry width="50" height="50" relative="1" as="geometry">
            <mxPoint x="79" y="33" as="sourcePoint" />
            <mxPoint x="120" y="33" as="targetPoint" />
          </mxGeometry>
        </mxCell>
        <mxCell id="nCClCoLdNjX5_hGO6nCZ-20" value="" style="endArrow=classic;html=1;rounded=0;" edge="1" parent="nCClCoLdNjX5_hGO6nCZ-24">
          <mxGeometry width="50" height="50" relative="1" as="geometry">
            <mxPoint x="199" y="33" as="sourcePoint" />
            <mxPoint x="240" y="33" as="targetPoint" />
          </mxGeometry>
        </mxCell>
        <mxCell id="nCClCoLdNjX5_hGO6nCZ-21" value="" style="endArrow=classic;html=1;rounded=0;" edge="1" parent="nCClCoLdNjX5_hGO6nCZ-24">
          <mxGeometry width="50" height="50" relative="1" as="geometry">
            <mxPoint x="319" y="34" as="sourcePoint" />
            <mxPoint x="360" y="34" as="targetPoint" />
          </mxGeometry>
        </mxCell>
        <mxCell id="nCClCoLdNjX5_hGO6nCZ-22" value="" style="endArrow=classic;html=1;rounded=0;" edge="1" parent="nCClCoLdNjX5_hGO6nCZ-24">
          <mxGeometry width="50" height="50" relative="1" as="geometry">
            <mxPoint x="439" y="34" as="sourcePoint" />
            <mxPoint x="480" y="34" as="targetPoint" />
          </mxGeometry>
        </mxCell>
        <mxCell id="nCClCoLdNjX5_hGO6nCZ-23" value="" style="endArrow=classic;html=1;rounded=0;" edge="1" parent="nCClCoLdNjX5_hGO6nCZ-24">
          <mxGeometry width="50" height="50" relative="1" as="geometry">
            <mxPoint x="560" y="34" as="sourcePoint" />
            <mxPoint x="601" y="34" as="targetPoint" />
          </mxGeometry>
        </mxCell>
        <mxCell id="nCClCoLdNjX5_hGO6nCZ-25" value="" style="group" vertex="1" connectable="0" parent="1">
          <mxGeometry x="120" y="370" width="680" height="70" as="geometry" />
        </mxCell>
        <mxCell id="nCClCoLdNjX5_hGO6nCZ-26" value="&lt;font style=&quot;font-size: 16px;&quot;&gt;1&lt;/font&gt;" style="ellipse;whiteSpace=wrap;html=1;" vertex="1" parent="nCClCoLdNjX5_hGO6nCZ-25">
          <mxGeometry width="80" height="70" as="geometry" />
        </mxCell>
        <mxCell id="nCClCoLdNjX5_hGO6nCZ-27" value="2" style="ellipse;whiteSpace=wrap;html=1;fontSize=16;" vertex="1" parent="nCClCoLdNjX5_hGO6nCZ-25">
          <mxGeometry x="120" width="80" height="70" as="geometry" />
        </mxCell>
        <mxCell id="nCClCoLdNjX5_hGO6nCZ-28" value="3" style="ellipse;whiteSpace=wrap;html=1;fontSize=16;fillColor=#008a00;fontColor=#ffffff;strokeColor=#005700;" vertex="1" parent="nCClCoLdNjX5_hGO6nCZ-25">
          <mxGeometry x="240" width="80" height="70" as="geometry" />
        </mxCell>
        <mxCell id="nCClCoLdNjX5_hGO6nCZ-29" value="4" style="ellipse;whiteSpace=wrap;html=1;fontSize=16;" vertex="1" parent="nCClCoLdNjX5_hGO6nCZ-25">
          <mxGeometry x="360" width="80" height="70" as="geometry" />
        </mxCell>
        <mxCell id="nCClCoLdNjX5_hGO6nCZ-30" value="5" style="ellipse;whiteSpace=wrap;html=1;fontSize=16;fillColor=#1ba1e2;fontColor=#ffffff;strokeColor=#006EAF;" vertex="1" parent="nCClCoLdNjX5_hGO6nCZ-25">
          <mxGeometry x="480" width="80" height="70" as="geometry" />
        </mxCell>
        <mxCell id="nCClCoLdNjX5_hGO6nCZ-31" value="6" style="ellipse;whiteSpace=wrap;html=1;fontSize=16;" vertex="1" parent="nCClCoLdNjX5_hGO6nCZ-25">
          <mxGeometry x="600" width="80" height="70" as="geometry" />
        </mxCell>
        <mxCell id="nCClCoLdNjX5_hGO6nCZ-32" value="" style="endArrow=classic;html=1;rounded=0;" edge="1" parent="nCClCoLdNjX5_hGO6nCZ-25">
          <mxGeometry width="50" height="50" relative="1" as="geometry">
            <mxPoint x="79" y="33" as="sourcePoint" />
            <mxPoint x="120" y="33" as="targetPoint" />
          </mxGeometry>
        </mxCell>
        <mxCell id="nCClCoLdNjX5_hGO6nCZ-33" value="" style="endArrow=classic;html=1;rounded=0;" edge="1" parent="nCClCoLdNjX5_hGO6nCZ-25">
          <mxGeometry width="50" height="50" relative="1" as="geometry">
            <mxPoint x="199" y="33" as="sourcePoint" />
            <mxPoint x="240" y="33" as="targetPoint" />
          </mxGeometry>
        </mxCell>
        <mxCell id="nCClCoLdNjX5_hGO6nCZ-34" value="" style="endArrow=classic;html=1;rounded=0;" edge="1" parent="nCClCoLdNjX5_hGO6nCZ-25">
          <mxGeometry width="50" height="50" relative="1" as="geometry">
            <mxPoint x="319" y="34" as="sourcePoint" />
            <mxPoint x="360" y="34" as="targetPoint" />
          </mxGeometry>
        </mxCell>
        <mxCell id="nCClCoLdNjX5_hGO6nCZ-35" value="" style="endArrow=classic;html=1;rounded=0;" edge="1" parent="nCClCoLdNjX5_hGO6nCZ-25">
          <mxGeometry width="50" height="50" relative="1" as="geometry">
            <mxPoint x="439" y="34" as="sourcePoint" />
            <mxPoint x="480" y="34" as="targetPoint" />
          </mxGeometry>
        </mxCell>
        <mxCell id="nCClCoLdNjX5_hGO6nCZ-36" value="" style="endArrow=classic;html=1;rounded=0;" edge="1" parent="nCClCoLdNjX5_hGO6nCZ-25">
          <mxGeometry width="50" height="50" relative="1" as="geometry">
            <mxPoint x="560" y="34" as="sourcePoint" />
            <mxPoint x="601" y="34" as="targetPoint" />
          </mxGeometry>
        </mxCell>
        <mxCell id="nCClCoLdNjX5_hGO6nCZ-37" value="" style="group" vertex="1" connectable="0" parent="1">
          <mxGeometry x="120" y="40" width="680" height="70" as="geometry" />
        </mxCell>
        <mxCell id="nCClCoLdNjX5_hGO6nCZ-1" value="&lt;font style=&quot;font-size: 16px;&quot;&gt;1&lt;/font&gt;" style="ellipse;whiteSpace=wrap;html=1;" vertex="1" parent="nCClCoLdNjX5_hGO6nCZ-37">
          <mxGeometry width="80" height="70" as="geometry" />
        </mxCell>
        <mxCell id="nCClCoLdNjX5_hGO6nCZ-2" value="2" style="ellipse;whiteSpace=wrap;html=1;fontSize=16;" vertex="1" parent="nCClCoLdNjX5_hGO6nCZ-37">
          <mxGeometry x="120" width="80" height="70" as="geometry" />
        </mxCell>
        <mxCell id="nCClCoLdNjX5_hGO6nCZ-3" value="3" style="ellipse;whiteSpace=wrap;html=1;fontSize=16;" vertex="1" parent="nCClCoLdNjX5_hGO6nCZ-37">
          <mxGeometry x="240" width="80" height="70" as="geometry" />
        </mxCell>
        <mxCell id="nCClCoLdNjX5_hGO6nCZ-4" value="4" style="ellipse;whiteSpace=wrap;html=1;fontSize=16;" vertex="1" parent="nCClCoLdNjX5_hGO6nCZ-37">
          <mxGeometry x="360" width="80" height="70" as="geometry" />
        </mxCell>
        <mxCell id="nCClCoLdNjX5_hGO6nCZ-5" value="5" style="ellipse;whiteSpace=wrap;html=1;fontSize=16;" vertex="1" parent="nCClCoLdNjX5_hGO6nCZ-37">
          <mxGeometry x="480" width="80" height="70" as="geometry" />
        </mxCell>
        <mxCell id="nCClCoLdNjX5_hGO6nCZ-6" value="6" style="ellipse;whiteSpace=wrap;html=1;fontSize=16;" vertex="1" parent="nCClCoLdNjX5_hGO6nCZ-37">
          <mxGeometry x="600" width="80" height="70" as="geometry" />
        </mxCell>
        <mxCell id="nCClCoLdNjX5_hGO6nCZ-7" value="" style="endArrow=classic;html=1;rounded=0;" edge="1" parent="nCClCoLdNjX5_hGO6nCZ-37">
          <mxGeometry width="50" height="50" relative="1" as="geometry">
            <mxPoint x="79" y="33" as="sourcePoint" />
            <mxPoint x="120" y="33" as="targetPoint" />
          </mxGeometry>
        </mxCell>
        <mxCell id="nCClCoLdNjX5_hGO6nCZ-8" value="" style="endArrow=classic;html=1;rounded=0;" edge="1" parent="nCClCoLdNjX5_hGO6nCZ-37">
          <mxGeometry width="50" height="50" relative="1" as="geometry">
            <mxPoint x="199" y="33" as="sourcePoint" />
            <mxPoint x="240" y="33" as="targetPoint" />
          </mxGeometry>
        </mxCell>
        <mxCell id="nCClCoLdNjX5_hGO6nCZ-9" value="" style="endArrow=classic;html=1;rounded=0;" edge="1" parent="nCClCoLdNjX5_hGO6nCZ-37">
          <mxGeometry width="50" height="50" relative="1" as="geometry">
            <mxPoint x="319" y="34" as="sourcePoint" />
            <mxPoint x="360" y="34" as="targetPoint" />
          </mxGeometry>
        </mxCell>
        <mxCell id="nCClCoLdNjX5_hGO6nCZ-10" value="" style="endArrow=classic;html=1;rounded=0;" edge="1" parent="nCClCoLdNjX5_hGO6nCZ-37">
          <mxGeometry width="50" height="50" relative="1" as="geometry">
            <mxPoint x="439" y="34" as="sourcePoint" />
            <mxPoint x="480" y="34" as="targetPoint" />
          </mxGeometry>
        </mxCell>
        <mxCell id="nCClCoLdNjX5_hGO6nCZ-11" value="" style="endArrow=classic;html=1;rounded=0;" edge="1" parent="nCClCoLdNjX5_hGO6nCZ-37">
          <mxGeometry width="50" height="50" relative="1" as="geometry">
            <mxPoint x="560" y="34" as="sourcePoint" />
            <mxPoint x="601" y="34" as="targetPoint" />
          </mxGeometry>
        </mxCell>
        <mxCell id="nCClCoLdNjX5_hGO6nCZ-38" value="" style="group" vertex="1" connectable="0" parent="1">
          <mxGeometry x="120" y="520" width="680" height="70" as="geometry" />
        </mxCell>
        <mxCell id="nCClCoLdNjX5_hGO6nCZ-39" value="&lt;font style=&quot;font-size: 16px;&quot;&gt;1&lt;/font&gt;" style="ellipse;whiteSpace=wrap;html=1;" vertex="1" parent="nCClCoLdNjX5_hGO6nCZ-38">
          <mxGeometry width="80" height="70" as="geometry" />
        </mxCell>
        <mxCell id="nCClCoLdNjX5_hGO6nCZ-40" value="2" style="ellipse;whiteSpace=wrap;html=1;fontSize=16;" vertex="1" parent="nCClCoLdNjX5_hGO6nCZ-38">
          <mxGeometry x="120" width="80" height="70" as="geometry" />
        </mxCell>
        <mxCell id="nCClCoLdNjX5_hGO6nCZ-41" value="3" style="ellipse;whiteSpace=wrap;html=1;fontSize=16;" vertex="1" parent="nCClCoLdNjX5_hGO6nCZ-38">
          <mxGeometry x="240" width="80" height="70" as="geometry" />
        </mxCell>
        <mxCell id="nCClCoLdNjX5_hGO6nCZ-42" value="4" style="ellipse;whiteSpace=wrap;html=1;fontSize=16;fillColor=#008a00;fontColor=#ffffff;strokeColor=#005700;" vertex="1" parent="nCClCoLdNjX5_hGO6nCZ-38">
          <mxGeometry x="360" width="80" height="70" as="geometry" />
        </mxCell>
        <mxCell id="nCClCoLdNjX5_hGO6nCZ-43" value="5" style="ellipse;whiteSpace=wrap;html=1;fontSize=16;" vertex="1" parent="nCClCoLdNjX5_hGO6nCZ-38">
          <mxGeometry x="480" width="80" height="70" as="geometry" />
        </mxCell>
        <mxCell id="nCClCoLdNjX5_hGO6nCZ-44" value="6" style="ellipse;whiteSpace=wrap;html=1;fontSize=16;" vertex="1" parent="nCClCoLdNjX5_hGO6nCZ-38">
          <mxGeometry x="600" width="80" height="70" as="geometry" />
        </mxCell>
        <mxCell id="nCClCoLdNjX5_hGO6nCZ-45" value="" style="endArrow=classic;html=1;rounded=0;" edge="1" parent="nCClCoLdNjX5_hGO6nCZ-38">
          <mxGeometry width="50" height="50" relative="1" as="geometry">
            <mxPoint x="79" y="33" as="sourcePoint" />
            <mxPoint x="120" y="33" as="targetPoint" />
          </mxGeometry>
        </mxCell>
        <mxCell id="nCClCoLdNjX5_hGO6nCZ-46" value="" style="endArrow=classic;html=1;rounded=0;" edge="1" parent="nCClCoLdNjX5_hGO6nCZ-38">
          <mxGeometry width="50" height="50" relative="1" as="geometry">
            <mxPoint x="199" y="33" as="sourcePoint" />
            <mxPoint x="240" y="33" as="targetPoint" />
          </mxGeometry>
        </mxCell>
        <mxCell id="nCClCoLdNjX5_hGO6nCZ-47" value="" style="endArrow=classic;html=1;rounded=0;" edge="1" parent="nCClCoLdNjX5_hGO6nCZ-38">
          <mxGeometry width="50" height="50" relative="1" as="geometry">
            <mxPoint x="319" y="34" as="sourcePoint" />
            <mxPoint x="360" y="34" as="targetPoint" />
          </mxGeometry>
        </mxCell>
        <mxCell id="nCClCoLdNjX5_hGO6nCZ-48" value="" style="endArrow=classic;html=1;rounded=0;" edge="1" parent="nCClCoLdNjX5_hGO6nCZ-38">
          <mxGeometry width="50" height="50" relative="1" as="geometry">
            <mxPoint x="439" y="34" as="sourcePoint" />
            <mxPoint x="480" y="34" as="targetPoint" />
          </mxGeometry>
        </mxCell>
        <mxCell id="nCClCoLdNjX5_hGO6nCZ-49" value="" style="endArrow=classic;html=1;rounded=0;" edge="1" parent="nCClCoLdNjX5_hGO6nCZ-38">
          <mxGeometry width="50" height="50" relative="1" as="geometry">
            <mxPoint x="560" y="34" as="sourcePoint" />
            <mxPoint x="601" y="34" as="targetPoint" />
          </mxGeometry>
        </mxCell>
        <mxCell id="nCClCoLdNjX5_hGO6nCZ-50" value="Head" style="text;html=1;strokeColor=none;fillColor=none;align=center;verticalAlign=middle;whiteSpace=wrap;rounded=0;" vertex="1" parent="1">
          <mxGeometry x="50" y="60" width="60" height="30" as="geometry" />
        </mxCell>
        <mxCell id="nCClCoLdNjX5_hGO6nCZ-53" value="Head" style="text;html=1;strokeColor=none;fillColor=none;align=center;verticalAlign=middle;whiteSpace=wrap;rounded=0;" vertex="1" parent="1">
          <mxGeometry x="49" y="225" width="60" height="30" as="geometry" />
        </mxCell>
        <mxCell id="nCClCoLdNjX5_hGO6nCZ-54" value="Head" style="text;html=1;strokeColor=none;fillColor=none;align=center;verticalAlign=middle;whiteSpace=wrap;rounded=0;" vertex="1" parent="1">
          <mxGeometry x="50" y="385" width="60" height="30" as="geometry" />
        </mxCell>
        <mxCell id="nCClCoLdNjX5_hGO6nCZ-55" value="Head" style="text;html=1;strokeColor=none;fillColor=none;align=center;verticalAlign=middle;whiteSpace=wrap;rounded=0;" vertex="1" parent="1">
          <mxGeometry x="50" y="540" width="60" height="30" as="geometry" />
        </mxCell>
        <mxCell id="nCClCoLdNjX5_hGO6nCZ-56" value="Null&lt;br&gt;None" style="ellipse;whiteSpace=wrap;html=1;fontSize=16;fillColor=#1ba1e2;fontColor=#ffffff;strokeColor=#006EAF;" vertex="1" parent="1">
          <mxGeometry x="840" y="520" width="80" height="70" as="geometry" />
        </mxCell>
        <mxCell id="nCClCoLdNjX5_hGO6nCZ-57" value="" style="endArrow=classic;html=1;rounded=0;" edge="1" parent="1">
          <mxGeometry width="50" height="50" relative="1" as="geometry">
            <mxPoint x="800" y="554" as="sourcePoint" />
            <mxPoint x="841" y="554" as="targetPoint" />
          </mxGeometry>
        </mxCell>
        <mxCell id="nCClCoLdNjX5_hGO6nCZ-58" value="Null&lt;br&gt;None" style="ellipse;whiteSpace=wrap;html=1;fontSize=16;" vertex="1" parent="1">
          <mxGeometry x="840" y="370" width="80" height="70" as="geometry" />
        </mxCell>
        <mxCell id="nCClCoLdNjX5_hGO6nCZ-59" value="" style="endArrow=classic;html=1;rounded=0;" edge="1" parent="1">
          <mxGeometry width="50" height="50" relative="1" as="geometry">
            <mxPoint x="800" y="404" as="sourcePoint" />
            <mxPoint x="841" y="404" as="targetPoint" />
          </mxGeometry>
        </mxCell>
        <mxCell id="nCClCoLdNjX5_hGO6nCZ-60" value="Null&lt;br&gt;None" style="ellipse;whiteSpace=wrap;html=1;fontSize=16;" vertex="1" parent="1">
          <mxGeometry x="840" y="210" width="80" height="70" as="geometry" />
        </mxCell>
        <mxCell id="nCClCoLdNjX5_hGO6nCZ-61" value="" style="endArrow=classic;html=1;rounded=0;" edge="1" parent="1">
          <mxGeometry width="50" height="50" relative="1" as="geometry">
            <mxPoint x="800" y="244" as="sourcePoint" />
            <mxPoint x="841" y="244" as="targetPoint" />
          </mxGeometry>
        </mxCell>
        <mxCell id="nCClCoLdNjX5_hGO6nCZ-64" value="Null&lt;br&gt;None" style="ellipse;whiteSpace=wrap;html=1;fontSize=16;" vertex="1" parent="1">
          <mxGeometry x="840" y="40" width="80" height="70" as="geometry" />
        </mxCell>
        <mxCell id="nCClCoLdNjX5_hGO6nCZ-65" value="" style="endArrow=classic;html=1;rounded=0;" edge="1" parent="1">
          <mxGeometry width="50" height="50" relative="1" as="geometry">
            <mxPoint x="800" y="74" as="sourcePoint" />
            <mxPoint x="841" y="74" as="targetPoint" />
          </mxGeometry>
        </mxCell>
      </root>
    </mxGraphModel>
  </diagram>
</mxfile>
